<svg width="23" height="20" viewBox="0 0 23 20" fill="none" xmlns="http://www.w3.org/2000/svg">
<path d="M22.5504 3.85816L11.7242 0.0384082C11.5792 -0.0128027 11.4209 -0.0128027 11.2758 0.0384082L0.449669 3.85816C0.180497 3.95312 0.000359914 4.20738 5.3848e-07 4.49282C-0.000358837 4.77825 0.179194 5.03291 0.448141 5.12851L11.2743 8.97728C11.3473 9.00324 11.4237 9.01622 11.5 9.01622C11.5764 9.01622 11.6527 9.00324 11.7257 8.97728L22.5519 5.12851C22.8208 5.03291 23.0003 4.77825 23 4.49282C22.9996 4.20738 22.8195 3.95312 22.5504 3.85816Z" fill="#858395"/>
<path d="M21.3816 12.8541V6.97656L20.0339 7.45565V12.8541C19.628 13.0878 19.3545 13.5255 19.3545 14.0275C19.3545 14.5295 19.628 14.9673 20.0339 15.2009V18.5124C20.0339 18.8845 20.3356 19.1862 20.7078 19.1862C21.0799 19.1862 21.3816 18.8845 21.3816 18.5124V15.201C21.7875 14.9674 22.061 14.5295 22.061 14.0276C22.061 13.5256 21.7876 13.0878 21.3816 12.8541Z" fill="#858395"/>
<path d="M11.5006 10.3664C11.2693 10.3664 11.0415 10.3271 10.8235 10.2496L4.7373 8.08594V11.0511C4.7373 11.7766 5.4941 12.3901 6.98668 12.8745C8.28766 13.2968 9.89074 13.5293 11.5006 13.5293C13.1104 13.5293 14.7134 13.2968 16.0144 12.8745C17.507 12.3901 18.2638 11.7766 18.2638 11.0511V8.08594L12.1777 10.2496C11.9597 10.3271 11.7319 10.3664 11.5006 10.3664Z" fill="#858395"/>
</svg>
