<svg width="19" height="20" viewBox="0 0 19 20" fill="none" xmlns="http://www.w3.org/2000/svg">
<path d="M13.3662 10.4417L13.0228 4.5625H10.2503V7.20251H9.0785V4.5625H4.56531V7.20251H3.3935V4.5625H0.620992L0.00520557 15.1038C-0.0427215 15.9246 0.24156 16.706 0.805709 17.3041C1.36986 17.9021 2.13333 18.2315 2.95547 18.2315H9.45555C9.07627 17.493 8.86207 16.6564 8.86207 15.7707C8.86207 13.0974 10.8133 10.8716 13.3662 10.4417Z" fill="#858395"/>
<path d="M4.56537 3.42837C4.56537 2.1841 5.57765 1.17181 6.82192 1.17181C8.06619 1.17181 9.07852 2.1841 9.07852 3.42837V4.55913H10.2503V3.42837C10.2503 1.53796 8.71236 0 6.82192 0C4.93148 0 3.39355 1.53796 3.39355 3.42837V4.55913H4.56537V3.42837Z" fill="#858395"/>
<path d="M18.4991 15.7637C18.4991 13.4299 16.6004 11.5312 14.2666 11.5312C11.9329 11.5312 10.0342 13.4299 10.0342 15.7637C10.0342 18.0975 11.9329 19.9961 14.2666 19.9961C16.6004 19.9961 18.4991 18.0975 18.4991 15.7637ZM13.633 17.8366L11.7298 15.6841L12.6076 14.9079L13.6708 16.1103L15.8725 13.8297L16.7156 14.6435L13.633 17.8366Z" fill="#858395"/>
</svg>
