<svg width="20" height="23" viewBox="0 0 20 23" fill="none" xmlns="http://www.w3.org/2000/svg">
<path d="M16.3474 4.56798L17.7331 3.18233C17.9857 2.92971 17.9857 2.52018 17.7331 2.26757C17.4805 2.01496 17.0709 2.015 16.8183 2.26757L15.4326 3.65322C15.18 3.90579 15.18 4.31537 15.4326 4.56798C15.6852 4.82055 16.0947 4.82064 16.3474 4.56798Z" fill="#858395"/>
<path d="M19.3529 7.625H17.9672C17.6099 7.625 17.3203 7.91461 17.3203 8.27184C17.3203 8.62907 17.6099 8.91868 17.9672 8.91868H19.3529C19.7101 8.91868 19.9997 8.62907 19.9997 8.27184C19.9997 7.91461 19.7101 7.625 19.3529 7.625Z" fill="#858395"/>
<path d="M11.7318 2.67934C12.089 2.67934 12.3786 2.38972 12.3786 2.0325V0.646839C12.3786 0.289611 12.089 0 11.7318 0C11.3746 0 11.085 0.289611 11.085 0.646839V2.0325C11.085 2.38972 11.3746 2.67934 11.7318 2.67934Z" fill="#858395"/>
<path d="M0.189378 16.1229C-0.0630183 16.3753 -0.0632339 16.7851 0.189378 17.0377L2.96074 19.809C3.21326 20.0616 3.62284 20.0617 3.8755 19.809L4.95943 18.7251L1.27335 15.0391L0.189378 16.1229Z" fill="#858395"/>
<path d="M11.3877 16.6484L6.8457 18.7858L9.95066 21.8908C10.2032 22.1434 10.6128 22.1434 10.8654 21.8908L13.2903 19.4659C13.5429 19.2133 13.5429 18.8037 13.2903 18.5511L11.3877 16.6484Z" fill="#858395"/>
<path d="M8.72578 2.26757C8.57683 2.11863 8.36467 2.05157 8.15716 2.08775C7.94966 2.12398 7.77281 2.25895 7.68311 2.44955L2.18848 14.1256L5.87455 17.8117L17.5506 12.3171C17.7412 12.2274 17.8762 12.0505 17.9124 11.843C17.9487 11.6355 17.8816 11.4234 17.7326 11.2744L8.72578 2.26757Z" fill="#858395"/>
</svg>
