<svg width="22" height="22" viewBox="0 0 22 22" fill="none" xmlns="http://www.w3.org/2000/svg">
<path d="M11.0008 6.17676L13.4189 7.4482L12.957 4.75543L14.9146 2.84769L12.2099 2.45493L11.0008 0L9.7916 2.45493L7.08691 2.84769L9.04451 4.75543L8.5826 7.4482L11.0008 6.17676Z" fill="#858395"/>
<path d="M19.1695 6.84085L17.9604 4.39062L16.7512 6.84085L14.0479 7.23361L16.0041 9.14085L15.5422 11.8341L17.9604 10.5627L20.3799 11.8341L19.9166 9.14085L21.9996 7.23361L19.1695 6.84085Z" fill="#858395"/>
<path d="M2.08298 9.14085L1.61972 11.8341L4.03923 10.5627L6.4574 11.8341L5.99548 9.14085L7.95174 7.23361L5.2484 6.84085L4.03923 4.39062L2.83006 6.84085L0 7.23361L2.08298 9.14085Z" fill="#858395"/>
<path d="M14.2227 12.2852C14.2227 10.5083 12.7768 9.0625 11 9.0625C9.22318 9.0625 7.77734 10.5083 7.77734 12.2852C7.77734 14.062 9.22318 15.5078 11 15.5078C12.7768 15.5078 14.2227 14.062 14.2227 12.2852Z" fill="#858395"/>
<path d="M6.48828 20.0273V22.0039H15.5117V20.0273C15.5117 17.5399 13.4875 15.5156 11 15.5156C8.51251 15.5156 6.48828 17.5399 6.48828 20.0273Z" fill="#858395"/>
<path d="M20.668 21.3164C20.668 19.5396 19.2222 18.0938 17.4453 18.0938C17.112 18.0938 16.7968 18.1592 16.4941 18.2535C16.6766 18.8162 16.8008 19.4048 16.8008 20.0273V22.0039H20.668V21.3164Z" fill="#858395"/>
<path d="M20.0234 15.5156C20.0234 14.0938 18.8671 12.9375 17.4453 12.9375C16.0235 12.9375 14.8672 14.0938 14.8672 15.5156C14.8672 15.5977 14.8838 15.6752 14.8914 15.7553C15.527 16.3347 16.0396 17.0419 16.3689 17.8507C16.6976 18.0029 17.0599 18.0938 17.4453 18.0938C18.8671 18.0938 20.0234 16.9375 20.0234 15.5156Z" fill="#858395"/>
<path d="M7.10864 15.7553C7.1162 15.6752 7.13281 15.5977 7.13281 15.5156C7.13281 14.0938 5.97652 12.9375 4.55469 12.9375C3.13286 12.9375 1.97656 14.0938 1.97656 15.5156C1.97656 16.9375 3.13286 18.0938 4.55469 18.0938C4.94006 18.0938 5.30244 18.0029 5.63109 17.8509C5.9604 17.0419 6.47301 16.3347 7.10864 15.7553Z" fill="#858395"/>
<path d="M1.33203 21.3164V22.0039H5.19922V20.0273C5.19922 19.4048 5.32343 18.8162 5.50587 18.2535C5.20325 18.1592 4.88803 18.0938 4.55469 18.0938C2.77786 18.0938 1.33203 19.5396 1.33203 21.3164Z" fill="#858395"/>
</svg>
